<svg width="191" height="217" viewBox="0 0 191 217" fill="none" xmlns="http://www.w3.org/2000/svg">
<path d="M16.8327 197.739C16.8327 198.622 16.4979 199.398 15.8283 200.068C14.5183 201.378 12.6503 202.033 10.2243 202.033C9.74886 202.033 9.24426 201.989 8.71054 201.902C8.17683 201.805 7.84205 201.747 7.70619 201.727V201.713C6.9687 202.334 6.59995 202.877 6.59995 203.343C6.59995 203.77 6.80858 204.056 7.22585 204.202C7.81779 204.415 8.64262 204.532 9.70034 204.551C10.7581 204.571 11.5829 204.59 12.1748 204.609C12.7668 204.619 13.4072 204.648 14.0962 204.697C14.7852 204.745 15.3917 204.842 15.9157 204.988C16.4397 205.124 16.9297 205.308 17.3858 205.541C18.3174 206.026 18.7832 206.851 18.7832 208.015C18.7832 208.889 18.5551 209.66 18.099 210.33C17.643 210.999 17.0316 211.528 16.265 211.916C14.7415 212.702 12.9269 213.095 10.8211 213.095C8.99681 213.095 7.39082 212.843 6.00316 212.338C5.25596 212.067 4.66403 211.664 4.22735 211.13C3.79068 210.606 3.57234 209.976 3.57234 209.238C3.57234 207.86 4.26617 206.798 5.65382 206.05C5.28507 205.691 5.03277 205.352 4.89692 205.031C4.77077 204.711 4.70769 204.338 4.70769 203.911C4.70769 203.484 4.74651 203.154 4.82414 202.921C4.90177 202.688 5.02307 202.474 5.18804 202.28C5.40152 202.028 5.79938 201.684 6.38161 201.247C5.46945 200.791 4.77077 200.281 4.28557 199.719C3.81008 199.146 3.57234 198.428 3.57234 197.564C3.57234 196.691 3.77127 195.934 4.16913 195.294C4.57669 194.653 5.1104 194.144 5.77027 193.765C7.1094 192.999 8.6038 192.615 10.2535 192.615C10.7192 192.615 11.5877 192.737 12.859 192.979C14.1399 193.212 14.858 193.329 15.0132 193.329C15.8769 193.329 16.3815 192.897 16.527 192.033C17.7691 192.033 18.3902 192.528 18.3902 193.518C18.3902 193.993 18.2446 194.372 17.9535 194.653C17.6721 194.925 17.3421 195.061 16.9637 195.061C16.5949 195.061 16.1971 195.041 15.7701 195.003C16.0515 195.245 16.299 195.624 16.5125 196.138C16.7259 196.652 16.8327 197.186 16.8327 197.739ZM10.3117 193.867C9.26366 193.867 8.37091 194.173 7.63341 194.784C6.90562 195.396 6.54173 196.201 6.54173 197.2C6.54173 198.2 6.91533 199.02 7.66252 199.66C8.41943 200.301 9.3413 200.621 10.4281 200.621C11.515 200.621 12.3932 200.325 13.0627 199.733C13.742 199.132 14.0816 198.35 14.0816 197.39C14.0816 196.429 13.7129 195.604 12.9754 194.915C12.2476 194.216 11.3597 193.867 10.3117 193.867ZM10.5591 211.392C12.0535 211.392 13.1889 211.232 13.9652 210.912C14.7415 210.601 15.2801 210.238 15.5809 209.82C15.8817 209.413 16.0321 208.923 16.0321 208.35C16.0321 207.157 13.7129 206.56 9.07444 206.56C7.76442 206.56 7.1094 206.545 7.1094 206.516C6.37191 207.263 6.00316 207.977 6.00316 208.656C6.00316 210.48 7.52182 211.392 10.5591 211.392ZM27.5306 207.157C25.3376 207.157 23.5715 206.468 22.2323 205.09C20.8932 203.702 20.2236 201.946 20.2236 199.82C20.2236 198.404 20.5778 197.142 21.2862 196.036C21.9946 194.93 22.9504 194.085 24.1537 193.503C25.3667 192.911 26.7155 192.615 28.2002 192.615C30.3351 192.615 32.0963 193.28 33.484 194.61C34.8716 195.939 35.5655 197.657 35.5655 199.762C35.5655 201.218 35.2064 202.513 34.4883 203.649C33.7799 204.774 32.8193 205.643 31.6063 206.254C30.3933 206.856 29.0347 207.157 27.5306 207.157ZM28.1274 205.541C29.5733 205.541 30.699 205.051 31.5044 204.071C32.3195 203.091 32.7271 201.786 32.7271 200.155C32.7271 198.525 32.2613 197.118 31.3297 195.934C30.3981 194.75 29.1997 194.158 27.7344 194.158C26.2788 194.158 25.158 194.658 24.372 195.658C23.586 196.657 23.193 197.967 23.193 199.588C23.193 201.208 23.6539 202.606 24.5758 203.78C25.4977 204.954 26.6815 205.541 28.1274 205.541ZM44.4585 207.157C42.2654 207.157 40.4993 206.468 39.1602 205.09C37.821 203.702 37.1515 201.946 37.1515 199.82C37.1515 198.404 37.5056 197.142 38.214 196.036C38.9224 194.93 39.8782 194.085 41.0815 193.503C42.2945 192.911 43.6433 192.615 45.128 192.615C47.2629 192.615 49.0241 193.28 50.4118 194.61C51.7995 195.939 52.4933 197.657 52.4933 199.762C52.4933 201.218 52.1342 202.513 51.4162 203.649C50.7078 204.774 49.7471 205.643 48.5341 206.254C47.3211 206.856 45.9626 207.157 44.4585 207.157ZM45.0553 205.541C46.5011 205.541 47.6268 205.051 48.4322 204.071C49.2473 203.091 49.6549 201.786 49.6549 200.155C49.6549 198.525 49.1891 197.118 48.2575 195.934C47.326 194.75 46.1275 194.158 44.6623 194.158C43.2067 194.158 42.0859 194.658 41.2999 195.658C40.5138 196.657 40.1208 197.967 40.1208 199.588C40.1208 201.208 40.5818 202.606 41.5036 203.78C42.4255 204.954 43.6094 205.541 45.0553 205.541ZM65.4328 195.861C65.0253 195.328 64.4382 194.905 63.6716 194.595C62.9147 194.275 62.0656 194.115 61.1243 194.115C60.183 194.115 59.3825 194.386 58.7226 194.93C57.4417 195.987 56.8012 197.55 56.8012 199.617C56.8012 201.218 57.2331 202.576 58.0967 203.692C58.97 204.799 60.1005 205.352 61.4882 205.352C62.8856 205.352 63.8899 205.065 64.5013 204.493C65.1223 203.911 65.4328 202.95 65.4328 201.611V195.861ZM61.4154 192.543C62.0559 192.543 62.7691 192.649 63.5551 192.863C64.3508 193.067 64.9767 193.285 65.4328 193.518V188.642C65.4328 187.759 65.0835 187.283 64.3848 187.215C64.3169 187.205 64.2295 187.196 64.1228 187.186C64.0161 187.176 63.9384 187.171 63.8899 187.171C63.8414 187.162 63.7783 187.152 63.7007 187.142C63.6328 187.123 63.5794 187.104 63.5406 187.084C63.5115 187.065 63.4823 187.04 63.4532 187.011C63.3853 186.953 63.3513 186.812 63.3513 186.589C63.3513 186.366 63.5018 186.133 63.8026 185.891C64.346 185.444 65.0786 185.221 66.0005 185.221C66.9806 185.221 67.5531 185.279 67.7181 185.396C68.048 185.629 68.213 185.934 68.213 186.313V202.237C68.213 203.314 68.3294 204.013 68.5623 204.333C68.8049 204.643 69.0184 204.833 69.2028 204.9C69.3969 204.968 69.5618 205.027 69.6977 205.075C69.8432 205.124 69.9451 205.162 70.0034 205.192C70.0616 205.211 70.1344 205.25 70.2217 205.308C70.377 205.395 70.4546 205.531 70.4546 205.716C70.4546 206.123 70.2363 206.424 69.7996 206.618C69.3726 206.802 68.8001 206.895 68.082 206.895C67.3736 206.895 66.8593 206.759 66.5391 206.487C66.2188 206.215 65.9374 205.716 65.6948 204.988C64.8991 206.395 63.2398 207.098 60.7167 207.098C58.6983 207.098 57.0535 206.429 55.7823 205.09C54.5208 203.751 53.8901 202.014 53.8901 199.879C53.8901 197.744 54.5936 195.987 56.0007 194.61C57.4077 193.232 59.2126 192.543 61.4154 192.543Z" fill="#135561"/>
<path d="M93.2101 206.792L91.9583 206.807C90.6871 206.807 89.901 206.613 89.6002 206.225C89.4644 206.05 89.3964 205.842 89.3964 205.599C89.3964 205.347 89.4935 205.172 89.6876 205.075C89.8816 204.978 90.0951 204.924 90.328 204.915C90.5706 204.905 90.7889 204.832 90.983 204.696C91.1771 204.551 91.2741 204.323 91.2741 204.012L91.2887 199.777C91.2887 197.991 91.0752 196.676 90.6482 195.832C90.1825 194.881 89.2121 194.405 87.7371 194.405C86.1845 194.405 85.0976 194.896 84.4766 195.876C83.9137 196.788 83.6323 198.112 83.6323 199.849V204.012C83.6323 204.575 83.9429 204.876 84.5639 204.915C85.1947 204.944 85.51 205.191 85.51 205.657C85.51 206.191 85.2141 206.521 84.6221 206.647C84.1952 206.744 83.5887 206.792 82.8027 206.792L81.5509 206.807C80.2796 206.807 79.4936 206.613 79.1928 206.225C79.057 206.05 78.989 205.842 78.989 205.599C78.989 205.347 79.0861 205.172 79.2801 205.075C79.4742 204.978 79.6877 204.924 79.9206 204.915C80.1632 204.905 80.3815 204.832 80.5756 204.696C80.7697 204.551 80.8667 204.323 80.8667 204.012V188.161C80.8667 187.598 80.5174 187.259 79.8187 187.142C79.3335 187.064 79.0375 186.982 78.9308 186.895C78.8338 186.798 78.7852 186.642 78.7852 186.429C78.7852 186.215 78.8871 186.021 79.0909 185.847C79.2947 185.672 79.5616 185.541 79.8915 185.454C80.4737 185.298 81.1239 185.221 81.842 185.221C83.0452 185.221 83.6469 185.585 83.6469 186.312V194.769C84.9666 193.275 86.6357 192.528 88.6541 192.528C90.6725 192.528 92.0747 193.047 92.8607 194.085C93.6564 195.114 94.0543 196.676 94.0543 198.772L94.0397 204.012C94.0397 204.575 94.3503 204.876 94.9713 204.915C95.6021 204.944 95.9174 205.191 95.9174 205.657C95.9174 206.191 95.6263 206.521 95.0441 206.647C94.5977 206.744 93.9864 206.792 93.2101 206.792ZM100.72 197.564C100.361 197.564 99.9537 197.423 99.4976 197.142C99.0512 196.851 98.828 196.477 98.828 196.021C98.828 195.555 98.959 195.119 99.221 194.711C99.483 194.304 99.8227 193.974 100.24 193.721C100.657 193.459 101.142 193.241 101.696 193.066C102.705 192.746 103.792 192.586 104.956 192.586C106.916 192.586 108.338 193.023 109.221 193.896C110.114 194.76 110.56 196.191 110.56 198.19L110.545 202.484C110.545 203.522 110.676 204.172 110.938 204.434C111.006 204.502 111.22 204.59 111.579 204.696C112.569 205.007 113.064 205.245 113.064 205.41C113.064 206.429 112.02 206.938 109.934 206.938C109.148 206.938 108.634 206.763 108.391 206.414C108.158 206.065 108.032 205.429 108.013 204.507C107.576 205.293 106.911 205.929 106.019 206.414C105.126 206.899 104.17 207.142 103.151 207.142C102.132 207.142 101.269 207.011 100.56 206.749C99.8518 206.487 99.2744 206.065 98.828 205.482C98.3914 204.891 98.173 204.255 98.173 203.576C98.173 202.896 98.2506 202.353 98.4059 201.945C98.5612 201.528 98.7552 201.179 98.9881 200.897C99.221 200.616 99.5364 200.364 99.9343 200.14C100.342 199.917 100.72 199.743 101.07 199.616C101.419 199.481 101.87 199.359 102.423 199.253C103.238 199.097 103.923 198.991 104.476 198.932C105.029 198.864 105.315 198.826 105.334 198.816C105.393 198.806 105.723 198.772 106.324 198.714C106.936 198.646 107.416 198.515 107.765 198.321C107.765 196.477 107.518 195.274 107.023 194.711C106.586 194.226 105.868 193.983 104.869 193.983C103.869 193.983 103.117 194.241 102.613 194.755C102.118 195.259 101.87 196.065 101.87 197.171L101.885 197.491C101.477 197.54 101.089 197.564 100.72 197.564ZM107.765 199.631C107.105 199.874 106.358 200.043 105.524 200.14C104.699 200.228 104.049 200.335 103.573 200.461C103.098 200.587 102.7 200.742 102.38 200.926C101.642 201.353 101.273 202.086 101.273 203.124C101.273 204.793 102.244 205.628 104.185 205.628C105.863 205.628 106.926 204.827 107.372 203.226C107.634 202.314 107.765 201.116 107.765 199.631ZM119.409 206.792L118.158 206.807C116.886 206.807 116.1 206.613 115.8 206.225C115.664 206.05 115.596 205.842 115.596 205.599C115.596 205.347 115.693 205.172 115.887 205.075C116.081 204.978 116.294 204.924 116.527 204.915C116.77 204.905 116.988 204.832 117.182 204.696C117.376 204.551 117.473 204.323 117.473 204.012V196.822C117.473 195.958 117.367 195.424 117.153 195.221C116.949 195.017 116.775 194.886 116.629 194.828C116.493 194.769 116.275 194.697 115.974 194.609C115.673 194.522 115.426 194.435 115.232 194.347C115.047 194.26 114.955 194.129 114.955 193.954C114.955 193.178 115.998 192.79 118.085 192.79C118.968 192.79 119.526 192.945 119.759 193.256C120.001 193.556 120.123 194.26 120.123 195.366C120.453 194.532 120.996 193.877 121.753 193.401C122.519 192.926 123.301 192.688 124.096 192.688C124.902 192.688 125.562 192.863 126.076 193.212C126.6 193.552 126.862 193.988 126.862 194.522C126.862 195.046 126.692 195.468 126.353 195.788C126.013 196.099 125.596 196.254 125.101 196.254C124.606 196.254 124.179 196.123 123.82 195.861C123.47 195.599 123.242 195.259 123.136 194.842C122.883 194.803 122.675 194.784 122.51 194.784C120.996 194.784 120.239 196.526 120.239 200.009V204.012C120.239 204.575 120.55 204.876 121.171 204.915C121.801 204.944 122.117 205.191 122.117 205.657C122.117 206.191 121.826 206.521 121.243 206.647C120.797 206.744 120.186 206.792 119.409 206.792ZM130.602 192.804C133.378 192.804 134.765 193.144 134.765 193.823C134.765 194.095 134.455 194.308 133.834 194.464C133.222 194.619 132.917 194.828 132.917 195.09C132.917 195.42 134.193 198.36 136.745 203.91C139.268 198.272 140.529 195.356 140.529 195.162C140.529 194.968 140.432 194.818 140.238 194.711C140.044 194.604 139.831 194.522 139.598 194.464C138.986 194.308 138.681 194.095 138.681 193.823C138.681 193.503 139.03 193.256 139.729 193.081C140.427 192.897 141.082 192.804 141.694 192.804C142.305 192.804 142.844 192.833 143.309 192.892C143.785 192.94 144.236 193.047 144.663 193.212C145.1 193.367 145.318 193.556 145.318 193.78C145.318 194.207 145.012 194.469 144.401 194.566C143.79 194.653 143.373 194.765 143.149 194.9C142.936 195.027 142.732 195.293 142.538 195.701L138.171 205.075C137.725 206.065 137.448 206.608 137.342 206.705C137.235 206.802 137.133 206.89 137.036 206.967C136.861 207.093 136.657 207.156 136.425 207.156C136.192 207.156 136.007 207.127 135.871 207.069C135.745 207.021 135.643 206.972 135.566 206.923C135.498 206.875 135.42 206.778 135.333 206.632C135.246 206.477 135.187 206.37 135.158 206.312C135.139 206.244 135.085 206.108 134.998 205.905L130.005 195.745C129.782 195.289 129.583 195.002 129.409 194.886C129.234 194.76 128.831 194.653 128.201 194.566C127.579 194.469 127.269 194.202 127.269 193.765C127.269 193.474 127.672 193.241 128.477 193.066C129.292 192.892 130.001 192.804 130.602 192.804ZM148.287 205.206C146.948 203.886 146.278 202.135 146.278 199.951C146.278 197.768 146.953 195.997 148.302 194.638C149.66 193.27 151.387 192.586 153.483 192.586C155.143 192.586 156.54 193.125 157.675 194.202C158.821 195.269 159.393 196.613 159.393 198.234C159.393 199.02 158.772 199.413 157.53 199.413H149.102C149.121 200.985 149.631 202.309 150.63 203.386C151.63 204.464 152.891 205.002 154.415 205.002C155.424 205.002 156.404 204.706 157.355 204.114C157.86 203.804 158.18 203.648 158.316 203.648C158.461 203.648 158.622 203.721 158.796 203.867C158.981 204.003 159.073 204.172 159.073 204.376C159.073 204.91 158.728 205.405 158.039 205.861C157.36 206.307 156.608 206.637 155.783 206.851C154.958 207.074 154.235 207.185 153.614 207.185C151.412 207.185 149.636 206.526 148.287 205.206ZM156.715 197.884C156.695 196.768 156.404 195.861 155.841 195.162C155.279 194.464 154.454 194.114 153.367 194.114C152.29 194.114 151.344 194.503 150.529 195.279C149.723 196.055 149.296 196.943 149.248 197.943H152.654C154.168 197.943 155.521 197.923 156.715 197.884ZM168.272 205.468C170.455 205.468 171.547 204.798 171.547 203.459C171.547 202.45 170.562 201.659 168.592 201.087C168.223 200.98 167.777 200.854 167.253 200.708C166.273 200.446 165.613 200.247 165.273 200.111C164.419 199.781 163.696 199.301 163.104 198.67C162.512 198.04 162.216 197.292 162.216 196.429C162.216 195.313 162.745 194.386 163.803 193.649C164.87 192.911 166.156 192.542 167.66 192.542C169.125 192.542 170.499 192.809 171.779 193.343C172.41 193.605 172.92 193.969 173.308 194.435C173.706 194.9 173.905 195.386 173.905 195.89C173.905 196.395 173.701 196.797 173.293 197.098C172.895 197.399 172.478 197.55 172.041 197.55C171.615 197.55 171.328 197.511 171.183 197.433C171.047 197.346 170.979 197.152 170.979 196.851C170.979 194.978 169.984 194.042 167.995 194.042C167.17 194.042 166.452 194.226 165.841 194.595C165.229 194.954 164.924 195.424 164.924 196.007C164.924 196.919 165.875 197.642 167.777 198.175C168.077 198.253 168.441 198.35 168.868 198.467C169.295 198.573 169.688 198.685 170.047 198.801C170.406 198.908 170.78 199.039 171.168 199.194C171.566 199.34 171.983 199.534 172.42 199.777C172.857 200.019 173.211 200.281 173.483 200.563C174.113 201.203 174.429 201.979 174.429 202.892C174.429 203.794 174.123 204.575 173.512 205.235C172.299 206.526 170.552 207.171 168.272 207.171C166.787 207.171 165.419 206.928 164.167 206.443C163.526 206.191 163.012 205.842 162.624 205.395C162.236 204.949 162.042 204.473 162.042 203.969C162.042 203.464 162.202 203.076 162.522 202.804C162.842 202.523 163.206 202.382 163.614 202.382C164.021 202.382 164.366 202.508 164.647 202.761C164.938 203.013 165.084 203.328 165.084 203.707C165.084 204.075 165.05 204.473 164.982 204.9C166.011 205.279 167.107 205.468 168.272 205.468ZM178.475 194.74L177.587 194.755C177.228 194.755 176.966 194.721 176.801 194.653C176.636 194.585 176.553 194.444 176.553 194.231C176.553 194.008 176.645 193.809 176.83 193.634C177.024 193.45 177.242 193.309 177.485 193.212C178.154 192.94 178.552 192.712 178.678 192.528C178.814 192.334 179.013 191.916 179.275 191.276C179.925 189.675 180.469 188.874 180.905 188.874C181.129 188.874 181.255 189.117 181.284 189.602C181.323 190.078 181.342 190.441 181.342 190.694C181.352 190.946 181.352 191.324 181.342 191.829C181.332 192.324 181.328 192.668 181.328 192.863L184.792 192.877C185.131 192.877 185.418 192.964 185.651 193.139C185.883 193.304 186 193.527 186 193.809C186 194.09 185.883 194.308 185.651 194.464C185.427 194.619 185.146 194.697 184.806 194.697H181.328L181.313 202.135C181.313 204.24 181.842 205.293 182.9 205.293C183.191 205.293 183.622 205.206 184.195 205.031C184.768 204.847 185.141 204.755 185.316 204.755C185.714 204.755 185.913 204.983 185.913 205.439C185.913 205.798 185.442 206.157 184.501 206.516C183.569 206.875 182.608 207.054 181.619 207.054C180.639 207.054 179.867 206.671 179.304 205.905C178.751 205.138 178.475 204.129 178.475 202.877V194.74Z" fill="#135561"/>
<path d="M93.2101 206.792V206.4L93.2055 206.4L93.2101 206.792ZM91.9583 206.807V207.199L91.9628 207.199L91.9583 206.807ZM89.6002 206.225L89.9103 205.985L89.9098 205.984L89.6002 206.225ZM90.328 204.915L90.3123 204.523L90.3117 204.523L90.328 204.915ZM90.983 204.696L91.2081 205.018L91.2184 205.01L90.983 204.696ZM91.2741 204.012L90.8819 204.011V204.012H91.2741ZM91.2887 199.777L91.6809 199.778V199.777H91.2887ZM90.6482 195.832L90.296 196.004L90.2982 196.009L90.6482 195.832ZM84.4766 195.876L84.1452 195.666L84.1428 195.67L84.4766 195.876ZM84.5639 204.915L84.5394 205.306L84.5458 205.307L84.5639 204.915ZM84.6221 206.647L84.5404 206.263L84.5352 206.264L84.6221 206.647ZM82.8027 206.792V206.4L82.7981 206.4L82.8027 206.792ZM81.5509 206.807V207.199L81.5554 207.199L81.5509 206.807ZM79.1928 206.225L79.5028 205.985L79.5024 205.984L79.1928 206.225ZM79.9206 204.915L79.9049 204.523L79.9043 204.523L79.9206 204.915ZM80.5756 204.696L80.8007 205.018L80.811 205.01L80.5756 204.696ZM79.8187 187.142L79.8832 186.755L79.8807 186.755L79.8187 187.142ZM78.9308 186.895L78.6534 187.172L78.6673 187.186L78.6824 187.198L78.9308 186.895ZM79.8915 185.454L79.9919 185.833L79.9926 185.833L79.8915 185.454ZM83.6469 194.769H83.2546V195.806L83.9409 195.029L83.6469 194.769ZM92.8607 194.085L92.548 194.322L92.5505 194.325L92.8607 194.085ZM94.0543 198.772L94.4465 198.773V198.772H94.0543ZM94.0397 204.012L93.6475 204.011V204.012H94.0397ZM94.9713 204.915L94.9468 205.306L94.9532 205.307L94.9713 204.915ZM95.0441 206.647L94.961 206.264L94.9608 206.264L95.0441 206.647ZM93.2055 206.4L91.9537 206.415L91.9628 207.199L93.2146 207.185L93.2055 206.4ZM91.9583 206.415C91.3386 206.415 90.8593 206.367 90.5094 206.281C90.1509 206.192 89.9813 206.076 89.9103 205.985L89.2902 206.465C89.52 206.762 89.8937 206.937 90.3213 207.042C90.7574 207.15 91.3068 207.199 91.9583 207.199V206.415ZM89.9098 205.984C89.8328 205.885 89.7887 205.763 89.7887 205.599H89.0042C89.0042 205.92 89.096 206.215 89.2906 206.466L89.9098 205.984ZM89.7887 205.599C89.7887 205.522 89.8034 205.485 89.8121 205.469C89.8189 205.457 89.8303 205.442 89.863 205.426L89.5121 204.724C89.3508 204.805 89.2166 204.926 89.1263 205.088C89.038 205.247 89.0042 205.423 89.0042 205.599H89.7887ZM89.863 205.426C90.0039 205.355 90.1626 205.314 90.3443 205.307L90.3117 204.523C90.0276 204.535 89.7594 204.6 89.5121 204.724L89.863 205.426ZM90.3437 205.307C90.6594 205.294 90.9507 205.198 91.208 205.018L90.7581 204.375C90.6272 204.467 90.4818 204.516 90.3123 204.523L90.3437 205.307ZM91.2184 205.01C91.5381 204.77 91.6664 204.408 91.6664 204.012H90.8819C90.8819 204.237 90.8161 204.331 90.7477 204.383L91.2184 205.01ZM91.6664 204.014L91.6809 199.778L90.8965 199.775L90.8819 204.011L91.6664 204.014ZM91.6809 199.777C91.6809 197.975 91.468 196.584 90.9983 195.655L90.2982 196.009C90.6824 196.769 90.8965 198.007 90.8965 199.777H91.6809ZM91.0005 195.659C90.4435 194.522 89.2939 194.013 87.7371 194.013V194.798C89.1303 194.798 89.9214 195.24 90.296 196.004L91.0005 195.659ZM87.7371 194.013C86.1008 194.013 84.8617 194.535 84.1452 195.666L84.8079 196.086C85.3335 195.256 86.2681 194.798 87.7371 194.798V194.013ZM84.1428 195.67C83.5249 196.671 83.2401 198.08 83.2401 199.849H84.0246C84.0246 198.144 84.3026 196.904 84.8104 196.082L84.1428 195.67ZM83.2401 199.849V204.012H84.0246V199.849H83.2401ZM83.2401 204.012C83.2401 204.366 83.3396 204.697 83.5923 204.942C83.8388 205.181 84.1759 205.284 84.5394 205.306L84.5884 204.523C84.3309 204.507 84.2021 204.44 84.1381 204.378C84.0803 204.322 84.0246 204.221 84.0246 204.012H83.2401ZM84.5458 205.307C84.8231 205.319 84.9652 205.379 85.0314 205.431C85.0783 205.468 85.1178 205.523 85.1178 205.657H85.9023C85.9023 205.326 85.7841 205.024 85.5156 204.814C85.2664 204.618 84.9354 204.539 84.582 204.523L84.5458 205.307ZM85.1178 205.657C85.1178 205.848 85.0669 205.964 84.9961 206.043C84.9206 206.127 84.7843 206.211 84.5404 206.263L84.7039 207.031C85.0519 206.956 85.3596 206.813 85.58 206.567C85.8052 206.316 85.9023 206 85.9023 205.657H85.1178ZM84.5352 206.264C84.1508 206.352 83.5786 206.4 82.8027 206.4V207.185C83.5987 207.185 84.2395 207.136 84.7091 207.029L84.5352 206.264ZM82.7981 206.4L81.5463 206.415L81.5554 207.199L82.8072 207.185L82.7981 206.4ZM81.5509 206.415C80.9312 206.415 80.4519 206.367 80.102 206.281C79.7435 206.192 79.5739 206.076 79.5028 205.985L78.8828 206.465C79.1126 206.762 79.4863 206.937 79.9139 207.042C80.3499 207.15 80.8993 207.199 81.5509 207.199V206.415ZM79.5024 205.984C79.4253 205.885 79.3813 205.763 79.3813 205.599H78.5968C78.5968 205.92 78.6886 206.215 78.8832 206.466L79.5024 205.984ZM79.3813 205.599C79.3813 205.522 79.396 205.485 79.4047 205.469C79.4115 205.457 79.4229 205.442 79.4556 205.426L79.1047 204.724C78.9434 204.805 78.8092 204.926 78.7189 205.088C78.6306 205.247 78.5968 205.423 78.5968 205.599H79.3813ZM79.4556 205.426C79.5965 205.355 79.7552 205.314 79.9369 205.307L79.9043 204.523C79.6202 204.535 79.3519 204.6 79.1047 204.724L79.4556 205.426ZM79.9363 205.307C80.252 205.294 80.5433 205.198 80.8005 205.018L80.3507 204.375C80.2197 204.467 80.0744 204.516 79.9049 204.523L79.9363 205.307ZM80.811 205.01C81.1307 204.77 81.259 204.408 81.259 204.012H80.4745C80.4745 204.237 80.4087 204.331 80.3403 204.383L80.811 205.01ZM81.259 204.012V188.161H80.4745V204.012H81.259ZM81.259 188.161C81.259 187.792 81.1407 187.458 80.8781 187.203C80.6256 186.957 80.2772 186.821 79.8832 186.755L79.7542 187.529C80.0589 187.58 80.2345 187.671 80.3313 187.765C80.4181 187.85 80.4745 187.968 80.4745 188.161H81.259ZM79.8807 186.755C79.6452 186.717 79.466 186.68 79.3381 186.644C79.1937 186.604 79.1638 186.579 79.1792 186.591L78.6824 187.198C78.8045 187.298 78.976 187.358 79.1275 187.4C79.2956 187.447 79.5071 187.489 79.7567 187.529L79.8807 186.755ZM79.2082 186.617C79.2167 186.626 79.1775 186.595 79.1775 186.429H78.393C78.393 186.69 78.4508 186.969 78.6534 187.172L79.2082 186.617ZM79.1775 186.429C79.1775 186.358 79.2052 186.265 79.3462 186.144L78.8357 185.549C78.5691 185.777 78.393 186.072 78.393 186.429H79.1775ZM79.3462 186.144C79.4946 186.017 79.704 185.909 79.9919 185.833L79.7911 185.074C79.4191 185.173 79.0948 185.327 78.8357 185.549L79.3462 186.144ZM79.9926 185.833C80.5362 185.688 81.1517 185.613 81.842 185.613V184.829C81.0961 184.829 80.4112 184.909 79.7904 185.075L79.9926 185.833ZM81.842 185.613C82.4169 185.613 82.7825 185.702 82.9927 185.829C83.1711 185.937 83.2546 186.08 83.2546 186.312H84.0391C84.0391 185.817 83.8219 185.414 83.3987 185.158C83.0071 184.921 82.4704 184.829 81.842 184.829V185.613ZM83.2546 186.312V194.769H84.0391V186.312H83.2546ZM83.9409 195.029C85.1851 193.62 86.7466 192.92 88.6541 192.92V192.136C86.5248 192.136 84.7481 192.93 83.3529 194.51L83.9409 195.029ZM88.6541 192.92C90.6186 192.92 91.8697 193.426 92.548 194.322L93.1735 193.849C92.2798 192.668 90.7264 192.136 88.6541 192.136V192.92ZM92.5505 194.325C93.2692 195.254 93.6621 196.714 93.6621 198.772H94.4465C94.4465 196.639 94.0437 194.973 93.171 193.845L92.5505 194.325ZM93.6621 198.771L93.6475 204.011L94.432 204.013L94.4465 198.773L93.6621 198.771ZM93.6475 204.012C93.6475 204.366 93.7471 204.697 93.9997 204.942C94.2462 205.181 94.5833 205.284 94.9469 205.306L94.9958 204.523C94.7383 204.507 94.6096 204.44 94.5456 204.378C94.4877 204.322 94.432 204.221 94.432 204.012H93.6475ZM94.9532 205.307C95.2305 205.319 95.3727 205.379 95.4388 205.431C95.4857 205.468 95.5252 205.523 95.5252 205.657H96.3097C96.3097 205.326 96.1915 205.024 95.923 204.814C95.6738 204.618 95.3429 204.539 94.9894 204.523L94.9532 205.307ZM95.5252 205.657C95.5252 205.85 95.4745 205.967 95.405 206.045C95.3314 206.129 95.1989 206.212 94.961 206.264L95.1272 207.03C95.4715 206.956 95.7757 206.811 95.9932 206.564C96.2148 206.313 96.3097 205.998 96.3097 205.657H95.5252ZM94.9608 206.264C94.5542 206.352 93.9749 206.4 93.2101 206.4V207.185C93.9979 207.185 94.6412 207.136 95.1274 207.03L94.9608 206.264ZM99.4976 197.142L99.2833 197.471L99.2916 197.476L99.4976 197.142ZM100.24 193.721L100.443 194.057L100.449 194.054L100.24 193.721ZM101.696 193.066L101.814 193.44L101.814 193.44L101.696 193.066ZM109.221 193.896L108.945 194.175L108.948 194.178L109.221 193.896ZM110.56 198.19L110.952 198.191V198.19H110.56ZM110.545 202.484L110.153 202.483V202.484H110.545ZM110.938 204.434L111.216 204.157L110.938 204.434ZM111.579 204.696L111.696 204.322L111.691 204.32L111.579 204.696ZM108.391 206.414L108.065 206.632L108.069 206.638L108.391 206.414ZM108.013 204.507L108.405 204.499L108.374 203.049L107.67 204.317L108.013 204.507ZM100.56 206.749L100.424 207.117L100.56 206.749ZM98.828 205.482L98.5123 205.715L98.5167 205.721L98.828 205.482ZM98.4059 201.945L98.7725 202.085L98.7735 202.082L98.4059 201.945ZM99.9343 200.14L99.7459 199.796L99.7424 199.798L99.9343 200.14ZM101.07 199.616L101.203 199.985L101.212 199.982L101.07 199.616ZM102.423 199.253L102.35 198.867L102.349 198.867L102.423 199.253ZM104.476 198.932L104.517 199.322L104.523 199.322L104.476 198.932ZM105.334 198.816L105.27 198.429L105.212 198.439L105.159 198.465L105.334 198.816ZM106.324 198.714L106.362 199.104L106.368 199.104L106.324 198.714ZM107.765 198.321L107.956 198.664L108.158 198.552V198.321H107.765ZM107.023 194.711L107.318 194.452L107.315 194.449L107.023 194.711ZM102.613 194.755L102.333 194.48L102.333 194.48L102.613 194.755ZM101.87 197.171H101.478V197.18L101.478 197.189L101.87 197.171ZM101.885 197.491L101.931 197.881L102.293 197.838L102.277 197.473L101.885 197.491ZM107.765 199.631H108.158V199.069L107.63 199.263L107.765 199.631ZM105.524 200.14L105.565 200.531L105.569 200.53L105.524 200.14ZM102.38 200.926L102.184 200.587L102.183 200.587L102.38 200.926ZM107.372 203.226L106.995 203.118L106.994 203.121L107.372 203.226ZM100.72 197.172C100.461 197.172 100.126 197.069 99.7036 196.808L99.2916 197.476C99.7812 197.778 100.261 197.956 100.72 197.956V197.172ZM99.7119 196.813C99.3548 196.581 99.2203 196.321 99.2203 196.021H98.4358C98.4358 196.634 98.7477 197.121 99.2833 197.471L99.7119 196.813ZM99.2203 196.021C99.2203 195.634 99.3279 195.27 99.551 194.923L98.8911 194.499C98.5901 194.967 98.4358 195.477 98.4358 196.021H99.2203ZM99.551 194.923C99.7804 194.566 100.076 194.279 100.443 194.057L100.037 193.386C99.5689 193.669 99.1857 194.041 98.8911 194.499L99.551 194.923ZM100.449 194.054C100.833 193.812 101.287 193.607 101.814 193.44L101.577 192.692C100.998 192.875 100.481 193.107 100.031 193.389L100.449 194.054ZM101.814 193.44C102.781 193.133 103.828 192.978 104.956 192.978V192.194C103.755 192.194 102.628 192.359 101.577 192.692L101.814 193.44ZM104.956 192.978C106.871 192.978 108.168 193.407 108.945 194.175L109.497 193.617C108.507 192.639 106.962 192.194 104.956 192.194V192.978ZM108.948 194.178C109.729 194.933 110.168 196.235 110.168 198.19H110.952C110.952 196.147 110.498 194.586 109.494 193.614L108.948 194.178ZM110.168 198.189L110.153 202.483L110.938 202.485L110.952 198.191L110.168 198.189ZM110.153 202.484C110.153 203.016 110.187 203.467 110.259 203.828C110.329 204.177 110.447 204.498 110.661 204.712L111.216 204.157C111.168 204.109 111.089 203.974 111.028 203.673C110.97 203.383 110.938 202.99 110.938 202.484H110.153ZM110.661 204.712C110.757 204.807 110.895 204.871 111.001 204.914C111.125 204.965 111.282 205.017 111.467 205.072L111.691 204.32C111.517 204.269 111.388 204.225 111.298 204.188C111.253 204.17 111.224 204.155 111.206 204.146C111.185 204.134 111.195 204.136 111.216 204.157L110.661 204.712ZM111.462 205.071C111.951 205.224 112.301 205.355 112.523 205.461C112.635 205.515 112.696 205.555 112.723 205.577C112.771 205.616 112.671 205.559 112.671 205.41H113.456C113.456 205.177 113.294 205.03 113.218 204.968C113.122 204.889 112.997 204.819 112.862 204.754C112.589 204.623 112.196 204.479 111.696 204.322L111.462 205.071ZM112.671 205.41C112.671 205.594 112.625 205.738 112.544 205.857C112.461 205.979 112.324 206.098 112.109 206.203C111.668 206.419 110.958 206.546 109.934 206.546V207.33C110.997 207.33 111.851 207.203 112.453 206.908C112.76 206.759 113.015 206.559 113.192 206.299C113.371 206.037 113.456 205.735 113.456 205.41H112.671ZM109.934 206.546C109.172 206.546 108.839 206.371 108.713 206.19L108.069 206.638C108.429 207.156 109.124 207.33 109.934 207.33V206.546ZM108.718 206.196C108.553 205.949 108.424 205.416 108.405 204.499L107.621 204.515C107.64 205.442 107.764 206.18 108.065 206.632L108.718 206.196ZM107.67 204.317C107.274 205.029 106.667 205.615 105.831 206.069L106.206 206.759C107.155 206.243 107.878 205.557 108.356 204.698L107.67 204.317ZM105.831 206.069C104.996 206.523 104.105 206.75 103.151 206.75V207.534C104.235 207.534 105.255 207.275 106.206 206.759L105.831 206.069ZM103.151 206.75C102.163 206.75 101.349 206.622 100.696 206.381L100.424 207.117C101.188 207.399 102.101 207.534 103.151 207.534V206.75ZM100.696 206.381C100.055 206.144 99.5393 205.765 99.1393 205.244L98.5167 205.721C99.0095 206.364 99.6484 206.83 100.424 207.117L100.696 206.381ZM99.1437 205.25C98.7524 204.719 98.5653 204.164 98.5653 203.576H97.7808C97.7808 204.346 98.0303 205.062 98.5124 205.715L99.1437 205.25ZM98.5653 203.576C98.5653 202.92 98.6409 202.43 98.7725 202.085L98.0394 201.806C97.8604 202.276 97.7808 202.872 97.7808 203.576H98.5653ZM98.7735 202.082C98.9167 201.697 99.0908 201.389 99.2903 201.147L98.686 200.647C98.4197 200.969 98.2056 201.359 98.0383 201.809L98.7735 202.082ZM99.2903 201.147C99.4858 200.911 99.7603 200.688 100.126 200.483L99.7424 199.798C99.3125 200.04 98.9562 200.321 98.686 200.647L99.2903 201.147ZM100.123 200.485C100.517 200.269 100.877 200.103 101.203 199.985L100.936 199.248C100.564 199.382 100.167 199.566 99.7459 199.796L100.123 200.485ZM101.212 199.982C101.531 199.858 101.957 199.742 102.498 199.638L102.349 198.867C101.783 198.977 101.307 199.103 100.927 199.251L101.212 199.982ZM102.497 199.638C103.306 199.484 103.978 199.379 104.517 199.322L104.435 198.542C103.867 198.602 103.171 198.711 102.35 198.867L102.497 199.638ZM104.523 199.322C104.8 199.288 105.012 199.261 105.158 199.241C105.23 199.231 105.289 199.223 105.331 199.216C105.352 199.213 105.373 199.209 105.391 199.206C105.399 199.204 105.411 199.202 105.424 199.198C105.426 199.198 105.466 199.189 105.51 199.167L105.159 198.465C105.185 198.452 105.206 198.445 105.213 198.443C105.222 198.44 105.228 198.439 105.232 198.438C105.238 198.436 105.241 198.436 105.239 198.436C105.235 198.437 105.226 198.438 105.208 198.441C105.175 198.447 105.123 198.454 105.053 198.464C104.912 198.483 104.704 198.509 104.428 198.543L104.523 199.322ZM105.399 199.203C105.398 199.203 105.403 199.202 105.418 199.2C105.431 199.199 105.45 199.196 105.473 199.194C105.52 199.189 105.584 199.182 105.666 199.173C105.83 199.156 106.062 199.134 106.362 199.104L106.286 198.324C105.697 198.381 105.346 198.416 105.27 198.429L105.399 199.203ZM106.368 199.104C107.006 199.033 107.543 198.893 107.956 198.664L107.575 197.978C107.289 198.137 106.866 198.259 106.281 198.324L106.368 199.104ZM108.158 198.321C108.158 197.384 108.095 196.594 107.964 195.957C107.834 195.326 107.63 194.808 107.318 194.452L106.728 194.97C106.911 195.177 107.078 195.542 107.196 196.115C107.312 196.681 107.373 197.414 107.373 198.321H108.158ZM107.315 194.449C106.772 193.845 105.921 193.591 104.869 193.591V194.376C105.816 194.376 106.401 194.606 106.731 194.974L107.315 194.449ZM104.869 193.591C103.806 193.591 102.936 193.865 102.333 194.48L102.893 195.03C103.299 194.616 103.933 194.376 104.869 194.376V193.591ZM102.333 194.48C101.734 195.09 101.478 196.018 101.478 197.171H102.262C102.262 196.111 102.501 195.429 102.893 195.029L102.333 194.48ZM101.478 197.189L101.493 197.509L102.277 197.473L102.262 197.153L101.478 197.189ZM101.838 197.102C101.445 197.149 101.072 197.172 100.72 197.172V197.956C101.106 197.956 101.51 197.931 101.931 197.881L101.838 197.102ZM107.63 199.263C107.004 199.493 106.288 199.657 105.478 199.751L105.569 200.53C106.429 200.43 107.207 200.254 107.901 199.999L107.63 199.263ZM105.482 199.75C104.649 199.839 103.976 199.948 103.473 200.082L103.674 200.84C104.121 200.721 104.749 200.617 105.565 200.531L105.482 199.75ZM103.473 200.082C102.974 200.214 102.542 200.38 102.184 200.587L102.575 201.266C102.858 201.104 103.221 200.96 103.674 200.84L103.473 200.082ZM102.183 200.587C101.296 201.1 100.881 201.982 100.881 203.124H101.666C101.666 202.19 101.988 201.606 102.576 201.266L102.183 200.587ZM100.881 203.124C100.881 204.036 101.149 204.787 101.745 205.3C102.331 205.803 103.167 206.02 104.185 206.02V205.236C103.261 205.236 102.642 205.036 102.257 204.705C101.883 204.383 101.666 203.882 101.666 203.124H100.881ZM104.185 206.02C105.087 206.02 105.861 205.804 106.477 205.341C107.092 204.877 107.51 204.194 107.75 203.332L106.994 203.121C106.789 203.86 106.451 204.378 106.005 204.714C105.557 205.051 104.961 205.236 104.185 205.236V206.02ZM107.749 203.335C108.025 202.373 108.158 201.134 108.158 199.631H107.373C107.373 201.097 107.243 202.255 106.995 203.118L107.749 203.335ZM119.409 206.792V206.4L119.405 206.4L119.409 206.792ZM118.158 206.807V207.199L118.162 207.199L118.158 206.807ZM115.8 206.225L116.11 205.985L116.109 205.984L115.8 206.225ZM116.527 204.915L116.512 204.523L116.511 204.523L116.527 204.915ZM117.182 204.696L117.407 205.018L117.418 205.01L117.182 204.696ZM117.153 195.221L116.876 195.498L116.882 195.504L117.153 195.221ZM116.629 194.828L116.475 195.188L116.484 195.192L116.629 194.828ZM115.232 194.347L115.064 194.702L115.071 194.705L115.232 194.347ZM119.759 193.256L119.445 193.491L119.453 193.502L119.759 193.256ZM120.123 195.366H119.73L120.487 195.51L120.123 195.366ZM121.753 193.401L121.546 193.068L121.544 193.069L121.753 193.401ZM126.076 193.212L125.855 193.536L125.863 193.541L126.076 193.212ZM126.353 195.788L126.617 196.078L126.622 196.074L126.353 195.788ZM123.82 195.861L123.584 196.175L123.589 196.178L123.82 195.861ZM123.136 194.842L123.516 194.745L123.451 194.494L123.195 194.454L123.136 194.842ZM121.171 204.915L121.146 205.306L121.153 205.307L121.171 204.915ZM121.243 206.647L121.16 206.264L121.16 206.264L121.243 206.647ZM119.405 206.4L118.153 206.415L118.162 207.199L119.414 207.185L119.405 206.4ZM118.158 206.415C117.538 206.415 117.059 206.367 116.709 206.281C116.35 206.192 116.181 206.076 116.11 205.985L115.49 206.465C115.719 206.762 116.093 206.937 116.521 207.042C116.957 207.15 117.506 207.199 118.158 207.199V206.415ZM116.109 205.984C116.032 205.885 115.988 205.763 115.988 205.599H115.204C115.204 205.92 115.295 206.215 115.49 206.466L116.109 205.984ZM115.988 205.599C115.988 205.522 116.003 205.485 116.011 205.469C116.018 205.457 116.03 205.442 116.062 205.426L115.711 204.724C115.55 204.805 115.416 204.926 115.326 205.088C115.237 205.247 115.204 205.423 115.204 205.599H115.988ZM116.062 205.426C116.203 205.355 116.362 205.314 116.544 205.307L116.511 204.523C116.227 204.535 115.959 204.6 115.711 204.724L116.062 205.426ZM116.543 205.307C116.859 205.294 117.15 205.198 117.407 205.018L116.957 204.375C116.826 204.467 116.681 204.516 116.512 204.523L116.543 205.307ZM117.418 205.01C117.737 204.77 117.866 204.408 117.866 204.012H117.081C117.081 204.237 117.015 204.331 116.947 204.383L117.418 205.01ZM117.866 204.012V196.822H117.081V204.012H117.866ZM117.866 196.822C117.866 196.377 117.839 195.999 117.778 195.697C117.72 195.409 117.621 195.124 117.424 194.937L116.882 195.504C116.899 195.521 116.96 195.605 117.009 195.851C117.055 196.082 117.081 196.403 117.081 196.822H117.866ZM117.431 194.943C117.215 194.728 116.995 194.552 116.775 194.463L116.484 195.192C116.554 195.22 116.683 195.306 116.876 195.498L117.431 194.943ZM116.784 194.467C116.624 194.399 116.387 194.321 116.084 194.233L115.865 194.986C116.163 195.073 116.362 195.14 116.475 195.188L116.784 194.467ZM116.084 194.233C115.793 194.148 115.564 194.067 115.393 193.99L115.071 194.705C115.288 194.802 115.554 194.896 115.865 194.986L116.084 194.233ZM115.4 193.993C115.352 193.97 115.343 193.955 115.345 193.958C115.346 193.959 115.347 193.962 115.348 193.964C115.349 193.966 115.348 193.963 115.348 193.954H114.563C114.563 194.115 114.607 194.272 114.704 194.409C114.798 194.543 114.927 194.637 115.064 194.702L115.4 193.993ZM115.348 193.954C115.348 193.857 115.377 193.781 115.443 193.707C115.517 193.624 115.65 193.532 115.874 193.449C116.329 193.279 117.055 193.182 118.085 193.182V192.398C117.028 192.398 116.189 192.494 115.601 192.713C115.304 192.824 115.046 192.974 114.859 193.183C114.664 193.4 114.563 193.663 114.563 193.954H115.348ZM118.085 193.182C118.507 193.182 118.829 193.22 119.06 193.284C119.295 193.349 119.4 193.432 119.445 193.491L120.073 193.02C119.884 192.769 119.594 192.618 119.271 192.528C118.945 192.438 118.545 192.398 118.085 192.398V193.182ZM119.453 193.502C119.511 193.573 119.588 193.742 119.645 194.075C119.7 194.397 119.73 194.825 119.73 195.366H120.515C120.515 194.801 120.484 194.324 120.418 193.942C120.354 193.572 120.249 193.239 120.064 193.009L119.453 193.502ZM120.487 195.51C120.787 194.753 121.276 194.164 121.962 193.733L121.544 193.069C120.716 193.589 120.118 194.31 119.758 195.222L120.487 195.51ZM121.96 193.734C122.673 193.292 123.383 193.08 124.096 193.08V192.296C123.218 192.296 122.366 192.559 121.546 193.068L121.96 193.734ZM124.096 193.08C124.846 193.08 125.423 193.243 125.856 193.536L126.296 192.887C125.7 192.483 124.957 192.296 124.096 192.296V193.08ZM125.863 193.541C126.297 193.823 126.47 194.145 126.47 194.522H127.254C127.254 193.831 126.903 193.28 126.289 192.883L125.863 193.541ZM126.47 194.522C126.47 194.953 126.334 195.266 126.083 195.503L126.622 196.074C127.05 195.67 127.254 195.139 127.254 194.522H126.47ZM126.088 195.499C125.826 195.738 125.506 195.862 125.101 195.862V196.646C125.686 196.646 126.2 196.46 126.617 196.078L126.088 195.499ZM125.101 195.862C124.679 195.862 124.335 195.752 124.051 195.544L123.589 196.178C124.022 196.494 124.533 196.646 125.101 196.646V195.862ZM124.055 195.547C123.776 195.338 123.6 195.074 123.516 194.745L122.756 194.939C122.885 195.444 123.165 195.86 123.584 196.175L124.055 195.547ZM123.195 194.454C122.933 194.414 122.702 194.392 122.51 194.392V195.176C122.647 195.176 122.834 195.193 123.076 195.23L123.195 194.454ZM122.51 194.392C122.05 194.392 121.634 194.526 121.278 194.799C120.926 195.069 120.654 195.457 120.447 195.934C120.036 196.88 119.847 198.251 119.847 200.009H120.631C120.631 198.284 120.821 197.043 121.166 196.247C121.338 195.853 121.539 195.588 121.755 195.422C121.966 195.26 122.212 195.176 122.51 195.176V194.392ZM119.847 200.009V204.012H120.631V200.009H119.847ZM119.847 204.012C119.847 204.366 119.946 204.697 120.199 204.942C120.446 205.181 120.783 205.284 121.146 205.306L121.195 204.523C120.938 204.507 120.809 204.44 120.745 204.378C120.687 204.322 120.631 204.221 120.631 204.012H119.847ZM121.153 205.307C121.43 205.319 121.572 205.379 121.638 205.431C121.685 205.468 121.725 205.523 121.725 205.657H122.509C122.509 205.326 122.391 205.024 122.122 204.814C121.873 204.618 121.542 204.539 121.189 204.523L121.153 205.307ZM121.725 205.657C121.725 205.85 121.674 205.967 121.604 206.045C121.531 206.129 121.398 206.212 121.16 206.264L121.326 207.03C121.671 206.956 121.975 206.811 122.193 206.564C122.414 206.313 122.509 205.998 122.509 205.657H121.725ZM121.16 206.264C120.754 206.352 120.174 206.4 119.409 206.4V207.185C120.197 207.185 120.841 207.136 121.327 207.03L121.16 206.264ZM133.834 194.464L133.738 194.083L133.737 194.084L133.834 194.464ZM136.745 203.91L136.388 204.074L136.75 204.86L137.103 204.071L136.745 203.91ZM139.598 194.464L139.501 194.844L139.503 194.844L139.598 194.464ZM139.729 193.081L139.824 193.461L139.829 193.46L139.729 193.081ZM143.309 192.892L143.261 193.281L143.27 193.282L143.309 192.892ZM144.663 193.212L144.522 193.578L144.532 193.581L144.663 193.212ZM144.401 194.566L144.457 194.954L144.463 194.953L144.401 194.566ZM143.149 194.9L143.349 195.238L143.353 195.235L143.149 194.9ZM142.538 195.701L142.184 195.532L142.182 195.535L142.538 195.701ZM138.171 205.075L137.816 204.909L137.814 204.914L138.171 205.075ZM137.036 206.967L137.266 207.285L137.273 207.279L137.281 207.273L137.036 206.967ZM135.871 207.069L136.026 206.709L136.019 206.706L136.012 206.703L135.871 207.069ZM135.566 206.923L135.338 207.243L135.348 207.25L135.358 207.256L135.566 206.923ZM135.333 206.632L134.991 206.825L134.997 206.834L135.333 206.632ZM135.158 206.312L134.781 206.42L134.791 206.455L134.807 206.488L135.158 206.312ZM134.998 205.905L135.359 205.75L135.355 205.741L135.35 205.732L134.998 205.905ZM130.005 195.745L129.653 195.917L129.653 195.918L130.005 195.745ZM129.409 194.886L129.179 195.204L129.185 195.208L129.191 195.212L129.409 194.886ZM128.201 194.566L128.14 194.953L128.147 194.954L128.201 194.566ZM128.477 193.066L128.395 192.683L128.394 192.683L128.477 193.066ZM130.602 193.197C131.982 193.197 132.984 193.282 133.631 193.44C133.957 193.52 134.16 193.61 134.273 193.694C134.375 193.769 134.373 193.811 134.373 193.823H135.157C135.157 193.496 134.981 193.241 134.737 193.061C134.504 192.89 134.186 192.768 133.818 192.678C133.077 192.497 131.998 192.412 130.602 192.412V193.197ZM134.373 193.823C134.373 193.784 134.404 193.8 134.31 193.864C134.211 193.932 134.031 194.01 133.738 194.083L133.929 194.844C134.258 194.762 134.543 194.656 134.755 194.51C134.971 194.361 135.157 194.134 135.157 193.823H134.373ZM133.737 194.084C133.414 194.166 133.133 194.27 132.925 194.413C132.713 194.557 132.524 194.78 132.524 195.09H133.309C133.309 195.137 133.274 195.124 133.367 195.061C133.464 194.994 133.642 194.917 133.93 194.844L133.737 194.084ZM132.524 195.09C132.524 195.159 132.539 195.228 132.55 195.275C132.564 195.329 132.582 195.39 132.603 195.457C132.647 195.59 132.71 195.762 132.79 195.969C132.953 196.385 133.194 196.962 133.514 197.698C134.154 199.172 135.112 201.298 136.388 204.074L137.101 203.747C135.825 200.972 134.87 198.852 134.233 197.386C133.915 196.653 133.678 196.086 133.521 195.684C133.443 195.482 133.386 195.327 133.349 195.215C133.331 195.158 133.319 195.117 133.313 195.089C133.304 195.054 133.309 195.061 133.309 195.09H132.524ZM137.103 204.071C138.364 201.251 139.311 199.111 139.943 197.651C140.259 196.921 140.497 196.359 140.656 195.966C140.736 195.77 140.797 195.612 140.839 195.496C140.86 195.438 140.878 195.386 140.891 195.342C140.898 195.316 140.922 195.24 140.922 195.162H140.137C140.137 195.109 140.15 195.078 140.138 195.12C140.132 195.142 140.12 195.178 140.101 195.23C140.064 195.332 140.007 195.478 139.929 195.671C139.773 196.055 139.538 196.611 139.223 197.339C138.593 198.795 137.648 200.932 136.387 203.75L137.103 204.071ZM140.922 195.162C140.922 194.802 140.725 194.531 140.427 194.367L140.049 195.055C140.103 195.084 140.121 195.108 140.127 195.117C140.131 195.123 140.137 195.134 140.137 195.162H140.922ZM140.427 194.367C140.201 194.243 139.956 194.149 139.693 194.083L139.503 194.844C139.705 194.895 139.887 194.966 140.049 195.055L140.427 194.367ZM139.694 194.084C139.407 194.011 139.231 193.933 139.135 193.866C139.044 193.803 139.073 193.787 139.073 193.823H138.288C138.288 194.132 138.47 194.358 138.685 194.509C138.895 194.655 139.177 194.762 139.501 194.844L139.694 194.084ZM139.073 193.823C139.073 193.819 139.073 193.814 139.08 193.802C139.09 193.787 139.113 193.757 139.169 193.718C139.286 193.635 139.494 193.544 139.824 193.461L139.634 192.7C139.265 192.793 138.948 192.913 138.716 193.077C138.476 193.248 138.288 193.495 138.288 193.823H139.073ZM139.829 193.46C140.501 193.283 141.122 193.197 141.694 193.197V192.412C141.043 192.412 140.354 192.51 139.629 192.702L139.829 193.46ZM141.694 193.197C142.293 193.197 142.815 193.225 143.261 193.281L143.358 192.502C142.872 192.442 142.317 192.412 141.694 192.412V193.197ZM143.27 193.282C143.712 193.327 144.129 193.426 144.522 193.578L144.805 192.846C144.344 192.668 143.858 192.553 143.349 192.501L143.27 193.282ZM144.532 193.581C144.728 193.651 144.841 193.718 144.898 193.767C144.948 193.81 144.926 193.813 144.926 193.78H145.71C145.71 193.523 145.579 193.32 145.411 193.174C145.25 193.034 145.034 192.928 144.795 192.842L144.532 193.581ZM144.926 193.78C144.926 193.886 144.894 193.947 144.834 193.998C144.758 194.063 144.609 194.135 144.34 194.178L144.463 194.953C144.804 194.899 145.114 194.791 145.344 194.594C145.59 194.384 145.71 194.1 145.71 193.78H144.926ZM144.346 194.177C143.734 194.265 143.244 194.383 142.945 194.565L143.353 195.235C143.501 195.146 143.845 195.041 144.457 194.954L144.346 194.177ZM142.95 194.563C142.634 194.75 142.388 195.104 142.184 195.532L142.892 195.87C143.076 195.482 143.238 195.303 143.349 195.238L142.95 194.563ZM142.182 195.535L137.816 204.909L138.527 205.241L142.894 195.867L142.182 195.535ZM137.814 204.914C137.591 205.407 137.414 205.783 137.279 206.047C137.212 206.179 137.158 206.278 137.117 206.347C137.067 206.43 137.056 206.435 137.078 206.415L137.605 206.995C137.68 206.927 137.744 206.827 137.79 206.75C137.845 206.659 137.908 206.542 137.979 206.403C138.121 206.123 138.305 205.733 138.529 205.236L137.814 204.914ZM137.078 206.415C136.976 206.507 136.881 206.589 136.791 206.661L137.281 207.273C137.385 207.19 137.494 207.097 137.605 206.995L137.078 206.415ZM136.806 206.649C136.704 206.723 136.582 206.764 136.425 206.764V207.549C136.733 207.549 137.019 207.464 137.266 207.285L136.806 206.649ZM136.425 206.764C136.218 206.764 136.093 206.737 136.026 206.709L135.717 207.43C135.922 207.517 136.166 207.549 136.425 207.549V206.764ZM136.012 206.703C135.9 206.66 135.823 206.621 135.774 206.591L135.358 207.256C135.464 207.323 135.591 207.381 135.731 207.435L136.012 206.703ZM135.794 206.604C135.8 206.609 135.789 206.602 135.763 206.569C135.738 206.538 135.707 206.493 135.669 206.431L134.997 206.834C135.089 206.988 135.201 207.145 135.338 207.243L135.794 206.604ZM135.675 206.44C135.587 206.284 135.533 206.185 135.509 206.137L134.807 206.488C134.841 206.556 134.904 206.67 134.991 206.825L135.675 206.44ZM135.535 206.204C135.508 206.108 135.444 205.949 135.359 205.75L134.638 206.059C134.727 206.267 134.77 206.38 134.781 206.42L135.535 206.204ZM135.35 205.732L130.357 195.572L129.653 195.918L134.646 206.078L135.35 205.732ZM130.358 195.572C130.241 195.334 130.126 195.129 130.011 194.964C129.899 194.804 129.773 194.657 129.626 194.559L129.191 195.212C129.219 195.231 129.279 195.286 129.367 195.412C129.451 195.533 129.547 195.7 129.653 195.917L130.358 195.572ZM129.638 194.568C129.491 194.461 129.289 194.388 129.076 194.332C128.854 194.273 128.578 194.222 128.254 194.177L128.147 194.954C128.454 194.997 128.695 195.043 128.875 195.09C129.065 195.141 129.152 195.184 129.179 195.204L129.638 194.568ZM128.261 194.178C127.987 194.135 127.835 194.062 127.757 193.995C127.695 193.942 127.661 193.878 127.661 193.765H126.877C126.877 194.089 126.998 194.377 127.246 194.59C127.479 194.79 127.793 194.899 128.14 194.953L128.261 194.178ZM127.661 193.765C127.661 193.83 127.611 193.802 127.767 193.712C127.916 193.625 128.172 193.534 128.56 193.45L128.394 192.683C127.977 192.773 127.628 192.886 127.375 193.032C127.129 193.175 126.877 193.409 126.877 193.765H127.661ZM128.559 193.45C129.357 193.279 130.036 193.197 130.602 193.197V192.412C129.965 192.412 129.228 192.504 128.395 192.683L128.559 193.45ZM148.287 205.206L148.012 205.485L148.013 205.486L148.287 205.206ZM148.302 194.638L148.023 194.362L148.023 194.362L148.302 194.638ZM157.675 194.202L157.405 194.486L157.408 194.489L157.675 194.202ZM149.102 199.413V199.02H148.705L148.71 199.418L149.102 199.413ZM157.355 204.114L157.15 203.78L157.148 203.781L157.355 204.114ZM158.796 203.867L158.545 204.168L158.554 204.176L158.564 204.183L158.796 203.867ZM158.039 205.861L158.255 206.189L158.256 206.188L158.039 205.861ZM155.783 206.851L155.685 206.471L155.681 206.472L155.783 206.851ZM156.715 197.884L156.728 198.276L157.114 198.264L157.107 197.877L156.715 197.884ZM150.529 195.279L150.258 194.995L150.256 194.996L150.529 195.279ZM149.248 197.943L148.856 197.924L148.836 198.335H149.248V197.943ZM148.562 204.927C147.31 203.692 146.67 202.048 146.67 199.951H145.886C145.886 202.221 146.586 204.08 148.012 205.485L148.562 204.927ZM146.67 199.951C146.67 197.856 147.314 196.189 148.58 194.915L148.023 194.362C146.591 195.805 145.886 197.68 145.886 199.951H146.67ZM148.58 194.915C149.858 193.627 151.482 192.978 153.483 192.978V192.194C151.293 192.194 149.462 192.913 148.023 194.362L148.58 194.915ZM153.483 192.978C155.049 192.978 156.348 193.483 157.405 194.486L157.945 193.917C156.732 192.766 155.237 192.194 153.483 192.194V192.978ZM157.408 194.489C158.47 195.479 159.001 196.718 159.001 198.234H159.785C159.785 196.509 159.171 195.059 157.943 193.915L157.408 194.489ZM159.001 198.234C159.001 198.503 158.905 198.668 158.718 198.786C158.499 198.924 158.122 199.02 157.53 199.02V199.805C158.18 199.805 158.734 199.704 159.137 199.449C159.57 199.175 159.785 198.75 159.785 198.234H159.001ZM157.53 199.02H149.102V199.805H157.53V199.02ZM148.71 199.418C148.73 201.079 149.272 202.5 150.343 203.653L150.918 203.12C149.99 202.119 149.513 200.89 149.494 199.408L148.71 199.418ZM150.343 203.653C151.42 204.814 152.787 205.394 154.415 205.394V204.61C152.996 204.61 151.84 204.113 150.918 203.12L150.343 203.653ZM154.415 205.394C155.505 205.394 156.556 205.073 157.563 204.447L157.148 203.781C156.252 204.339 155.343 204.61 154.415 204.61V205.394ZM157.561 204.448C157.808 204.296 158.002 204.187 158.145 204.118C158.217 204.083 158.269 204.061 158.306 204.049C158.349 204.034 158.346 204.041 158.316 204.041V203.256C158.218 203.256 158.124 203.282 158.053 203.306C157.975 203.333 157.891 203.369 157.803 203.412C157.626 203.498 157.407 203.622 157.15 203.78L157.561 204.448ZM158.316 204.041C158.331 204.041 158.403 204.05 158.545 204.168L159.047 203.565C158.84 203.392 158.592 203.256 158.316 203.256V204.041ZM158.564 204.183C158.662 204.255 158.681 204.314 158.681 204.376H159.465C159.465 204.031 159.299 203.75 159.029 203.551L158.564 204.183ZM158.681 204.376C158.681 204.717 158.465 205.109 157.823 205.534L158.256 206.188C158.992 205.701 159.465 205.102 159.465 204.376H158.681ZM157.824 205.533C157.182 205.955 156.47 206.268 155.685 206.471L155.881 207.23C156.746 207.007 157.538 206.66 158.255 206.189L157.824 205.533ZM155.681 206.472C154.878 206.689 154.191 206.793 153.614 206.793V207.578C154.28 207.578 155.039 207.458 155.886 207.229L155.681 206.472ZM153.614 206.793C151.496 206.793 149.825 206.162 148.561 204.926L148.013 205.486C149.447 206.89 151.328 207.578 153.614 207.578V206.793ZM157.107 197.877C157.086 196.696 156.777 195.698 156.147 194.916L155.536 195.408C156.032 196.024 156.304 196.841 156.323 197.891L157.107 197.877ZM156.147 194.916C155.494 194.106 154.545 193.722 153.367 193.722V194.507C154.363 194.507 155.063 194.822 155.536 195.408L156.147 194.916ZM153.367 193.722C152.184 193.722 151.142 194.152 150.258 194.995L150.799 195.563C151.545 194.853 152.395 194.507 153.367 194.507V193.722ZM150.256 194.996C149.388 195.833 148.91 196.812 148.856 197.924L149.639 197.962C149.683 197.074 150.058 196.277 150.801 195.561L150.256 194.996ZM149.248 198.335H152.654V197.55H149.248V198.335ZM152.654 198.335C154.171 198.335 155.529 198.315 156.728 198.276L156.702 197.492C155.514 197.531 154.164 197.55 152.654 197.55V198.335ZM168.592 201.087L168.701 200.71L168.701 200.71L168.592 201.087ZM167.253 200.708L167.358 200.33L167.354 200.329L167.253 200.708ZM165.273 200.111L165.419 199.747L165.414 199.745L165.273 200.111ZM163.803 193.649L163.58 193.326L163.579 193.327L163.803 193.649ZM171.779 193.343L171.629 193.705L171.629 193.705L171.779 193.343ZM173.308 194.435L173.006 194.686L173.01 194.689L173.308 194.435ZM173.293 197.098L173.06 196.783L173.057 196.785L173.293 197.098ZM171.183 197.433L170.971 197.763L170.984 197.772L170.998 197.779L171.183 197.433ZM165.841 194.595L166.039 194.933L166.043 194.931L165.841 194.595ZM167.777 198.175L167.671 198.553L167.679 198.555L167.777 198.175ZM168.868 198.467L168.765 198.845L168.773 198.847L168.868 198.467ZM170.047 198.801L169.926 199.175L169.936 199.177L170.047 198.801ZM171.168 199.194L171.022 199.559L171.033 199.563L171.168 199.194ZM173.483 200.563L173.2 200.835L173.203 200.838L173.483 200.563ZM173.512 205.235L173.797 205.504L173.799 205.502L173.512 205.235ZM164.167 206.443L164.023 206.808L164.025 206.809L164.167 206.443ZM162.522 202.804L162.776 203.103L162.781 203.099L162.522 202.804ZM164.647 202.761L164.385 203.053L164.39 203.057L164.647 202.761ZM164.982 204.9L164.595 204.839L164.544 205.157L164.846 205.268L164.982 204.9ZM168.272 205.86C169.391 205.86 170.296 205.691 170.933 205.3C171.601 204.89 171.939 204.258 171.939 203.459H171.154C171.154 204 170.946 204.372 170.523 204.631C170.068 204.91 169.336 205.076 168.272 205.076V205.86ZM171.939 203.459C171.939 202.806 171.613 202.253 171.053 201.803C170.503 201.362 169.709 201.003 168.701 200.71L168.482 201.463C169.445 201.743 170.127 202.066 170.562 202.415C170.988 202.756 171.154 203.103 171.154 203.459H171.939ZM168.701 200.71C168.33 200.603 167.882 200.476 167.358 200.33L167.148 201.086C167.671 201.231 168.116 201.357 168.483 201.463L168.701 200.71ZM167.354 200.329C166.371 200.067 165.733 199.873 165.419 199.747L165.127 200.476C165.492 200.621 166.174 200.826 167.151 201.087L167.354 200.329ZM165.414 199.745C164.612 199.435 163.94 198.987 163.39 198.402L162.818 198.939C163.453 199.615 164.226 200.127 165.132 200.477L165.414 199.745ZM163.39 198.402C162.866 197.844 162.609 197.192 162.609 196.429H161.824C161.824 197.392 162.158 198.235 162.818 198.939L163.39 198.402ZM162.609 196.429C162.609 195.462 163.056 194.648 164.027 193.97L163.579 193.327C162.434 194.125 161.824 195.163 161.824 196.429H162.609ZM164.026 193.971C165.018 193.286 166.223 192.935 167.66 192.935V192.15C166.089 192.15 164.723 192.536 163.58 193.326L164.026 193.971ZM167.66 192.935C169.077 192.935 170.398 193.192 171.629 193.705L171.93 192.981C170.599 192.426 169.174 192.15 167.66 192.15V192.935ZM171.629 193.705C172.209 193.946 172.664 194.274 173.007 194.686L173.609 194.183C173.176 193.663 172.612 193.264 171.93 192.981L171.629 193.705ZM173.01 194.689C173.36 195.1 173.512 195.498 173.512 195.89H174.297C174.297 195.273 174.051 194.701 173.606 194.18L173.01 194.689ZM173.512 195.89C173.512 196.27 173.368 196.556 173.06 196.783L173.526 197.414C174.033 197.039 174.297 196.52 174.297 195.89H173.512ZM173.057 196.785C172.717 197.042 172.381 197.157 172.041 197.157V197.942C172.575 197.942 173.074 197.756 173.53 197.411L173.057 196.785ZM172.041 197.157C171.838 197.157 171.679 197.148 171.559 197.132C171.433 197.115 171.379 197.093 171.367 197.087L170.998 197.779C171.132 197.85 171.294 197.887 171.454 197.909C171.621 197.932 171.818 197.942 172.041 197.942V197.157ZM171.395 197.103C171.418 197.118 171.413 197.13 171.4 197.092C171.386 197.052 171.371 196.976 171.371 196.851H170.587C170.587 197.174 170.653 197.559 170.971 197.763L171.395 197.103ZM171.371 196.851C171.371 195.848 171.104 195.025 170.502 194.458C169.904 193.896 169.044 193.649 167.995 193.649V194.434C168.935 194.434 169.567 194.655 169.964 195.029C170.357 195.399 170.587 195.981 170.587 196.851H171.371ZM167.995 193.649C167.11 193.649 166.32 193.848 165.638 194.259L166.043 194.931C166.585 194.604 167.23 194.434 167.995 194.434V193.649ZM165.642 194.256C164.941 194.668 164.531 195.253 164.531 196.007H165.316C165.316 195.596 165.517 195.239 166.039 194.933L165.642 194.256ZM164.531 196.007C164.531 196.621 164.859 197.135 165.4 197.545C165.932 197.95 166.699 198.28 167.671 198.553L167.883 197.798C166.952 197.537 166.293 197.239 165.874 196.921C165.463 196.608 165.316 196.304 165.316 196.007H164.531ZM167.679 198.555C167.977 198.632 168.339 198.729 168.765 198.845L168.972 198.088C168.543 197.971 168.178 197.874 167.875 197.796L167.679 198.555ZM168.773 198.847C169.193 198.952 169.577 199.061 169.926 199.174L170.168 198.428C169.799 198.309 169.398 198.195 168.963 198.086L168.773 198.847ZM169.936 199.177C170.282 199.28 170.644 199.407 171.022 199.559L171.314 198.83C170.916 198.671 170.531 198.536 170.159 198.425L169.936 199.177ZM171.033 199.563C171.409 199.7 171.808 199.885 172.229 200.119L172.61 199.434C172.159 199.183 171.723 198.98 171.303 198.826L171.033 199.563ZM172.229 200.119C172.641 200.348 172.962 200.588 173.2 200.835L173.765 200.29C173.46 199.974 173.072 199.69 172.61 199.434L172.229 200.119ZM173.203 200.838C173.76 201.404 174.036 202.081 174.036 202.892H174.821C174.821 201.878 174.466 201.002 173.762 200.287L173.203 200.838ZM174.036 202.892C174.036 203.695 173.768 204.381 173.224 204.968L173.799 205.502C174.478 204.769 174.821 203.892 174.821 202.892H174.036ZM173.226 204.966C172.107 206.157 170.477 206.779 168.272 206.779V207.563C170.627 207.563 172.49 206.894 173.797 205.504L173.226 204.966ZM168.272 206.779C166.83 206.779 165.511 206.543 164.309 206.077L164.025 206.809C165.327 207.313 166.743 207.563 168.272 207.563V206.779ZM164.311 206.078C163.719 205.845 163.26 205.529 162.92 205.138L162.328 205.653C162.764 206.154 163.334 206.536 164.023 206.808L164.311 206.078ZM162.92 205.138C162.582 204.75 162.434 204.363 162.434 203.969H161.649C161.649 204.584 161.889 205.148 162.328 205.653L162.92 205.138ZM162.434 203.969C162.434 203.554 162.561 203.285 162.776 203.103L162.268 202.505C161.842 202.866 161.649 203.374 161.649 203.969H162.434ZM162.781 203.099C163.033 202.877 163.306 202.774 163.614 202.774V201.99C163.106 201.99 162.651 202.168 162.263 202.51L162.781 203.099ZM163.614 202.774C163.933 202.774 164.182 202.87 164.385 203.053L164.909 202.468C164.55 202.146 164.11 201.99 163.614 201.99V202.774ZM164.39 203.057C164.597 203.236 164.692 203.444 164.692 203.707H165.476C165.476 203.212 165.279 202.789 164.904 202.464L164.39 203.057ZM164.692 203.707C164.692 204.052 164.66 204.429 164.595 204.839L165.369 204.962C165.44 204.518 165.476 204.099 165.476 203.707H164.692ZM164.846 205.268C165.921 205.664 167.064 205.86 168.272 205.86V205.076C167.15 205.076 166.1 204.894 165.117 204.532L164.846 205.268ZM178.475 194.74H178.867V194.342L178.468 194.348L178.475 194.74ZM177.587 194.755V195.147L177.593 195.147L177.587 194.755ZM176.801 194.653L176.651 195.016L176.801 194.653ZM176.83 193.634L177.1 193.919L177.1 193.918L176.83 193.634ZM177.485 193.212L177.63 193.576L177.632 193.575L177.485 193.212ZM178.678 192.528L178.357 192.303L178.355 192.306L178.678 192.528ZM179.275 191.276L179.638 191.424L179.639 191.424L179.275 191.276ZM181.284 189.602L180.892 189.626L180.893 189.634L181.284 189.602ZM181.342 190.694H180.95V190.701L180.95 190.709L181.342 190.694ZM181.342 191.829L181.734 191.837L181.734 191.837L181.342 191.829ZM181.328 192.863H180.935V193.253L181.326 193.255L181.328 192.863ZM184.792 192.877L184.79 193.269H184.792V192.877ZM185.651 193.139L185.415 193.453L185.424 193.459L185.651 193.139ZM185.651 194.464L185.433 194.137L185.427 194.142L185.651 194.464ZM181.328 194.697V194.304H180.936L180.935 194.696L181.328 194.697ZM181.313 202.135L180.921 202.134V202.135H181.313ZM184.195 205.031L184.309 205.406L184.315 205.405L184.195 205.031ZM184.501 206.516L184.361 206.149L184.36 206.15L184.501 206.516ZM179.304 205.905L178.986 206.134L178.988 206.137L179.304 205.905ZM178.468 194.348L177.58 194.363L177.593 195.147L178.481 195.132L178.468 194.348ZM177.587 194.363C177.238 194.363 177.04 194.327 176.95 194.29L176.651 195.016C176.891 195.114 177.218 195.147 177.587 195.147V194.363ZM176.95 194.29C176.942 194.287 176.942 194.286 176.945 194.288C176.949 194.291 176.952 194.295 176.953 194.298C176.957 194.304 176.945 194.289 176.945 194.231H176.161C176.161 194.386 176.191 194.548 176.277 194.695C176.365 194.846 176.497 194.952 176.651 195.016L176.95 194.29ZM176.945 194.231C176.945 194.131 176.982 194.031 177.1 193.919L176.56 193.349C176.309 193.587 176.161 193.885 176.161 194.231H176.945ZM177.1 193.918C177.259 193.767 177.435 193.654 177.63 193.576L177.339 192.848C177.049 192.964 176.789 193.132 176.56 193.35L177.1 193.918ZM177.632 193.575C177.975 193.436 178.26 193.304 178.48 193.177C178.688 193.059 178.886 192.919 179.002 192.749L178.355 192.306C178.355 192.306 178.351 192.311 178.34 192.322C178.329 192.334 178.313 192.348 178.29 192.366C178.244 192.402 178.179 192.446 178.09 192.497C177.913 192.599 177.664 192.716 177.337 192.848L177.632 193.575ZM179 192.753C179.165 192.517 179.379 192.059 179.638 191.424L178.912 191.127C178.648 191.774 178.464 192.15 178.357 192.303L179 192.753ZM179.639 191.424C179.96 190.632 180.246 190.061 180.495 189.695C180.619 189.511 180.724 189.395 180.806 189.328C180.889 189.26 180.92 189.267 180.905 189.267V188.482C180.673 188.482 180.472 188.588 180.31 188.721C180.147 188.854 179.993 189.038 179.846 189.254C179.551 189.689 179.24 190.319 178.912 191.128L179.639 191.424ZM180.905 189.267C180.885 189.267 180.856 189.26 180.831 189.242C180.809 189.227 180.809 189.217 180.819 189.237C180.844 189.285 180.879 189.402 180.892 189.626L181.675 189.579C181.66 189.317 181.617 189.07 181.515 188.875C181.403 188.659 181.199 188.482 180.905 188.482V189.267ZM180.893 189.634C180.931 190.106 180.95 190.458 180.95 190.694H181.734C181.734 190.425 181.714 190.049 181.675 189.57L180.893 189.634ZM180.95 190.709C180.959 190.949 180.96 191.319 180.95 191.822L181.734 191.837C181.744 191.33 181.744 190.943 181.734 190.679L180.95 190.709ZM180.95 191.821C180.94 192.316 180.935 192.664 180.935 192.863H181.72C181.72 192.673 181.725 192.332 181.734 191.837L180.95 191.821ZM181.326 193.255L184.79 193.269L184.793 192.485L181.329 192.47L181.326 193.255ZM184.792 193.269C185.061 193.269 185.261 193.337 185.415 193.453L185.886 192.825C185.574 192.592 185.202 192.485 184.792 192.485V193.269ZM185.424 193.459C185.555 193.552 185.608 193.657 185.608 193.809H186.392C186.392 193.398 186.212 193.056 185.877 192.819L185.424 193.459ZM185.608 193.809C185.608 193.96 185.556 194.055 185.433 194.137L185.868 194.79C186.211 194.562 186.392 194.22 186.392 193.809H185.608ZM185.427 194.142C185.284 194.241 185.086 194.304 184.806 194.304V195.089C185.206 195.089 185.571 194.997 185.875 194.786L185.427 194.142ZM184.806 194.304H181.328V195.089H184.806V194.304ZM180.935 194.696L180.921 202.134L181.705 202.135L181.72 194.697L180.935 194.696ZM180.921 202.135C180.921 203.208 181.053 204.071 181.359 204.68C181.515 204.99 181.721 205.245 181.989 205.423C182.258 205.602 182.567 205.685 182.9 205.685V204.901C182.703 204.901 182.549 204.853 182.422 204.769C182.293 204.683 182.169 204.544 182.06 204.328C181.837 203.883 181.705 203.167 181.705 202.135H180.921ZM182.9 205.685C183.252 205.685 183.73 205.583 184.309 205.406L184.081 204.656C183.515 204.829 183.129 204.901 182.9 204.901V205.685ZM184.315 205.405C184.597 205.314 184.824 205.248 184.999 205.205C185.182 205.159 185.28 205.147 185.316 205.147V204.362C185.177 204.362 185 204.396 184.811 204.443C184.612 204.492 184.365 204.564 184.075 204.658L184.315 205.405ZM185.316 205.147C185.439 205.147 185.465 205.18 185.468 205.184C185.48 205.198 185.52 205.259 185.52 205.439H186.305C186.305 205.162 186.246 204.882 186.059 204.668C185.863 204.444 185.59 204.362 185.316 204.362V205.147ZM185.52 205.439C185.52 205.44 185.52 205.444 185.518 205.451C185.515 205.459 185.509 205.473 185.496 205.493C185.469 205.535 185.416 205.593 185.322 205.666C185.13 205.812 184.817 205.975 184.361 206.149L184.64 206.882C185.125 206.697 185.519 206.502 185.798 206.289C186.067 206.083 186.305 205.802 186.305 205.439H185.52ZM184.36 206.15C183.473 206.492 182.56 206.662 181.619 206.662V207.447C182.657 207.447 183.666 207.258 184.642 206.882L184.36 206.15ZM181.619 206.662C180.759 206.662 180.107 206.335 179.62 205.672L178.988 206.137C179.627 207.008 180.518 207.447 181.619 207.447V206.662ZM179.622 205.675C179.131 204.994 178.867 204.073 178.867 202.877H178.082C178.082 204.185 178.371 205.282 178.986 206.134L179.622 205.675ZM178.867 202.877V194.74H178.082V202.877H178.867Z" fill="#135561"/>
<path fill-rule="evenodd" clip-rule="evenodd" d="M64.8853 28.8538C65.2705 28.5813 65.7414 28.5279 66.1353 28.6718L65.5058 31.3286C65.0212 31.4302 64.5151 31.2638 64.2235 30.8599C63.8205 30.3017 63.9797 29.5011 64.5792 29.0718C64.681 28.9988 64.7831 28.9262 64.8853 28.8538ZM60.5858 33.7971C61.0596 34.2981 61.0018 35.1055 60.4567 35.6004C60.3682 35.6807 60.2799 35.7613 60.1919 35.8421C59.6497 36.3401 58.8233 36.3401 58.3461 35.8422C57.8689 35.3443 57.9216 34.5369 58.4639 34.0389C58.5559 33.9544 58.6482 33.8701 58.7408 33.7861C59.2859 33.2912 60.112 33.2961 60.5858 33.7971ZM55.1005 39.1914C55.6412 39.6238 55.6913 40.4249 55.2125 40.9808C55.1347 41.071 55.0573 41.1615 54.9801 41.2521C54.5046 41.8107 53.6784 41.9158 53.1347 41.487C52.591 41.0581 52.5356 40.2576 53.0111 39.6991C53.0919 39.6042 53.173 39.5095 53.2543 39.4151C53.7332 38.8592 54.5597 38.7591 55.1005 39.1914ZM50.3397 45.1937C50.9387 45.5493 51.0969 46.3303 50.6932 46.9382C50.6277 47.0368 50.5625 47.1356 50.4976 47.2346C50.0977 47.8446 49.2859 48.054 48.6844 47.7022C48.0829 47.3505 47.9196 46.5707 48.3195 45.9607C48.3875 45.857 48.4557 45.7536 48.5243 45.6504C48.928 45.0425 49.7408 44.8381 50.3397 45.1937Z" fill="#135561"/>
<path d="M106.658 56.7992C89.953 54.7697 83.6543 59.1456 78.6731 75.7987C78.3741 76.7983 79.1047 77.8045 80.1443 77.8986C85.6301 78.3949 88.4122 79.8761 92.7434 83.114C93.2639 83.5031 93.9655 83.5508 94.5364 83.2417C99.0891 80.7772 102.376 79.8958 107.884 79.2354C108.564 79.1539 109.12 78.6597 109.324 78.0061C110.692 73.6178 114.089 68.0126 115.483 65.8099C115.847 65.2341 115.826 64.495 115.422 63.9455L114.981 63.3453C112.268 59.3062 110.535 57.6249 106.658 56.7992Z" fill="url(#paint0_linear)"/>
<path d="M60.4764 89.5672L57.2205 97.2561C57.1485 97.426 56.9216 97.4599 56.8018 97.3205C50.7425 90.2724 45.4399 86.3871 39.8288 83.1552C39.7415 83.1049 39.6935 83.0054 39.7092 82.9055C40.106 80.3818 41.1027 79.47 43.5363 78.7054C43.7373 78.6422 43.7792 78.3719 43.606 78.2535C37.6848 74.207 35.5466 71.7026 33.9407 67.1267C33.9215 67.072 33.9181 67.0071 33.9609 66.9676C34.4311 66.5346 37.3841 67.7405 39.3938 69.0251C39.6059 69.1606 39.8905 68.9305 39.7964 68.697C37.2664 62.4175 36.6134 58.7432 37.2759 53.0445C37.3017 52.8231 37.5849 52.7494 37.7167 52.9283C42.3292 59.1883 44.3432 63.0439 45.8002 69.5433C45.856 69.7924 46.2197 69.8105 46.3078 69.5702C47.2802 66.9184 48.1406 67.1564 49.7383 69.3092C49.7927 69.3826 49.8015 69.4832 49.7616 69.5658C47.893 73.4294 47.448 75.4217 49.4982 77.8854C49.5252 77.9179 49.5618 77.9436 49.6014 77.9585C55.0159 79.9869 57.5093 82.313 60.4763 89.3739C60.502 89.4351 60.5025 89.5058 60.4764 89.5672Z" fill="url(#paint1_linear)"/>
<path d="M35.1761 111.631L160.755 111.064V123.544H35.1761V111.631Z" fill="#E97D2F"/>
<path d="M177.015 95.2531C176.876 87.348 174.314 84.6807 166.959 82.2912C166.726 82.2154 166.656 81.9139 166.829 81.7411C175.43 73.1963 176.624 67.9185 170.164 57.8002C170.145 57.7707 170.12 57.743 170.093 57.721C162.207 51.3772 156.14 52.1808 142.725 60.8552C142.628 60.9182 142.499 60.925 142.395 60.8723C134.059 56.6306 129.466 56.8541 121.61 63.1102C116.313 67.4714 114.003 71.5844 111.315 82.2213C111.281 82.3546 111.162 82.4559 111.025 82.4689C91.4725 84.3323 86.0139 90.3832 84.9719 108.629C84.9612 108.815 85.1103 108.978 85.2972 108.977L117.925 108.786C118.012 108.786 118.096 108.75 118.156 108.687L127.27 99.2041C127.337 99.1339 127.369 99.037 127.358 98.9403L126.21 89.4943C126.207 89.4726 126.203 89.4513 126.196 89.4306L122.902 79.5658C122.856 79.4294 122.906 79.2795 123.024 79.1972L124.77 77.9774C124.911 77.8786 125.107 77.9098 125.212 78.0464C129.21 83.2208 130.355 86.6251 130.62 92.7343C130.633 93.0196 130.98 93.1571 131.181 92.9537L136.606 87.4429C136.652 87.3965 136.683 87.3361 136.695 87.272C137.825 80.9857 137.821 77.5115 135.573 71.9213C135.512 71.7691 135.572 71.593 135.715 71.513L137.972 70.2501C138.111 70.1724 138.288 70.2088 138.386 70.3341C142 74.9455 142.814 78.0058 142.267 83.45C142.237 83.7463 142.588 83.9321 142.811 83.7356L151.79 75.8409C151.93 75.718 152.144 75.7378 152.259 75.8841L154.641 78.9092C154.748 79.0441 154.731 79.2384 154.602 79.3524L143.536 89.1866C143.299 89.3975 143.477 89.7903 143.793 89.7563C149.822 89.1084 152.908 89.4089 156.852 91.1872C157.005 91.2562 157.079 91.4316 157.023 91.5895L156.138 94.0828C156.082 94.2404 155.914 94.329 155.751 94.2887C149.738 92.7977 145.966 92.6436 138.484 94.4387C138.418 94.4546 138.357 94.4913 138.313 94.5429L132.547 101.255C132.335 101.502 132.582 101.874 132.894 101.78C139.762 99.7133 144.106 99.1316 151.917 100.42L149.59 103.88C149.524 103.977 149.409 104.031 149.292 104.022C141.017 103.363 136.558 103.824 129.151 106.163C129.105 106.177 129.062 106.202 129.027 106.235L126.943 108.175C126.727 108.376 126.872 108.737 127.167 108.737L159.013 108.737C171.117 108.737 176.868 103.047 177.015 95.2531Z" fill="url(#paint2_linear)"/>
<path d="M59.6828 109.17L80.092 109.487C80.9593 109.501 81.6814 108.826 81.7465 107.961C82.4722 98.3145 84.3811 93.1019 89.8822 86.7879C90.6127 85.9495 90.3528 84.6284 89.3388 84.1697L87.1387 83.1744C87.0321 83.1262 86.9168 83.0888 86.8023 83.0648C67.0794 78.9249 60.7352 84.552 58.1036 107.372C57.9945 108.318 58.7303 109.155 59.6828 109.17Z" fill="url(#paint3_linear)"/>
<path fill-rule="evenodd" clip-rule="evenodd" d="M35.2476 126.664C35.6841 153.43 63.6264 175.023 98.032 175.023C132.438 175.023 160.38 153.43 160.816 126.664H35.2476Z" fill="#E97D2F"/>
<path d="M28.1194 86.7004C25.3892 91.0016 24.661 96.798 35.1679 108.677C35.2141 108.73 35.282 108.762 35.3518 108.763L41.878 108.84L54.3735 108.763C54.4885 108.762 54.5877 108.682 54.613 108.57L56.4052 100.646C56.4265 100.552 56.391 100.454 56.3142 100.395L52.6994 97.6262C41.7888 86.5389 36.695 82.665 30.1256 84.1088C30.0102 84.1341 29.8899 84.0753 29.841 83.9677C27.6393 79.1217 26.5494 76.2303 26.4611 69.8627C26.3134 64.6174 25.3874 61.8038 21.6183 57.4638C21.491 57.3173 21.2523 57.3689 21.1991 57.5554C20.0163 61.7032 20.0676 64.505 20.9647 68.7022C21.0257 68.9876 20.6047 69.144 20.4639 68.8882C17.914 64.2564 15.7101 61.3905 10.8278 57.539C10.6588 57.4057 10.4137 57.5376 10.4359 57.7516C10.9048 62.2612 12.4994 65.759 15.631 71.3309C15.7768 71.5902 15.4092 71.8546 15.2069 71.6365C9.84177 65.85 6.5384 63.7296 1.67532 63.8058C1.46999 63.809 1.36724 64.0513 1.50036 64.2078C9.73582 73.8907 15.6331 78.8344 28.0361 86.3499C28.1562 86.4227 28.1946 86.582 28.1194 86.7004Z" fill="url(#paint4_linear)"/>
<path fill-rule="evenodd" clip-rule="evenodd" d="M88.0065 21.0968C87.8025 22.0216 88.6083 22.8294 89.5506 22.6682C92.7271 22.1248 95.9932 21.8087 99.328 21.7403C124.285 21.2287 145.321 34.7552 153.718 54.0594C153.936 54.5591 154.433 54.8816 154.988 54.8704C155.949 54.851 156.614 53.8851 156.24 53.0203C147.418 32.6507 125.285 18.5403 99.3353 19.0723C95.8495 19.1438 92.4311 19.4766 89.1032 20.0497C88.5589 20.1434 88.1244 20.5626 88.0065 21.0968V21.0968Z" fill="#135561"/>
<path d="M74.797 15.295C71.3896 14.3173 67.6528 16.1592 66.4738 19.3975C65.2947 22.6359 67.1103 26.0708 70.5178 27.0484C73.9252 28.0261 77.662 26.1842 78.841 22.9459C80.0201 19.7076 78.2045 16.2727 74.797 15.295ZM88.8742 24.7766L83.8285 20.131L88.2241 14.604C88.817 13.8546 88.2736 12.8265 87.3015 12.8586L80.0878 13.0539L79.1475 6.37459C79.0206 5.47275 77.8483 5.13639 77.1507 5.80167L71.9934 10.7247L66.2665 6.81657C65.4908 6.28976 64.3723 6.84104 64.3678 7.75246L64.2879 14.5177L57.1315 15.6691C56.1644 15.8243 55.7588 16.9385 56.4406 17.5668L61.4863 22.2125L57.0885 27.7456C56.4956 28.4949 57.039 29.523 58.0111 29.4909L65.2248 29.2957L66.1608 35.967C66.2878 36.8689 67.4601 37.2052 68.1576 36.5399L73.315 31.6169L79.0354 35.5232C79.8112 36.05 80.9296 35.4987 80.9342 34.5873L81.0141 27.8221L88.1682 26.6767C89.1504 26.5191 89.556 25.405 88.8742 24.7766V24.7766ZM76.4697 28.3843C72.1434 30.5168 66.913 29.0161 64.811 25.0392C62.709 21.0623 64.5187 16.0916 68.8451 13.9591C73.1715 11.8267 78.4018 13.3273 80.5038 17.3042C82.6059 21.2811 80.7961 26.2518 76.4697 28.3843Z" fill="#E97D2F"/>
<defs>
<linearGradient id="paint0_linear" x1="96.9977" y1="56.3542" x2="97.1572" y2="83.7401" gradientUnits="userSpaceOnUse">
<stop stop-color="#EBD041"/>
<stop offset="1" stop-color="#31B67A"/>
</linearGradient>
<linearGradient id="paint1_linear" x1="48.0755" y1="52.7401" x2="46.8024" y2="97.3609" gradientUnits="userSpaceOnUse">
<stop stop-color="#EBD041"/>
<stop offset="1" stop-color="#31B67A"/>
</linearGradient>
<linearGradient id="paint2_linear" x1="130.65" y1="53.7306" x2="130.973" y2="109.052" gradientUnits="userSpaceOnUse">
<stop stop-color="#EBD041"/>
<stop offset="1" stop-color="#31B67A"/>
</linearGradient>
<linearGradient id="paint3_linear" x1="74.5531" y1="81.8236" x2="74.7147" y2="109.552" gradientUnits="userSpaceOnUse">
<stop stop-color="#EBD041"/>
<stop offset="1" stop-color="#31B67A"/>
</linearGradient>
<linearGradient id="paint4_linear" x1="28.8977" y1="57.0841" x2="29.1996" y2="108.914" gradientUnits="userSpaceOnUse">
<stop stop-color="#EBD041"/>
<stop offset="1" stop-color="#31B67A"/>
</linearGradient>
</defs>
</svg>
